# xmcd
#
# Track frame offsets: 
#        150
#        2192
#        24030
#        46130
#        65942
#        83760
#        99105
#        116637
#        131782
#        149402
#        168007
#        187847
#        217582
#
# Disc length: 4440 seconds
#
# Revision: 5
# Processed by: cddbd v1.5.2PL0 Copyright (c) Steve Scherf et al.
# Submitted via: ExactAudioCopy v1.3
#
DISCID=9e11560d
DTITLE=戴佩妮 - no penn, no gain
DYEAR=2003
DGENRE=Pop
TTITLE0=You have 5 messages
TTITLE1=Oh! My God
TTITLE2=水中央
TTITLE3=聽說
TTITLE4=拒絕
TTITLE5=什麼都捨得
TTITLE6=轉眼
TTITLE7=已經很久
TTITLE8=霸道
TTITLE9=躲在夜裡
TTITLE10=誰讓你開心
TTITLE11=No Message
TTITLE12=Data Track
EXTD=
EXTT0=
EXTT1=
EXTT2=
EXTT3=
EXTT4=
EXTT5=
EXTT6=
EXTT7=
EXTT8=
EXTT9=
EXTT10=
EXTT11=
EXTT12=
PLAYORDER=
